<svg id="Слой_1" data-name="Слой 1" xmlns="http://www.w3.org/2000/svg" viewBox="0 0 32 32"><defs><style>.cls-1{fill:#fff;}.cls-2{fill:#999;}</style></defs><title>up</title><rect class="cls-1" width="32" height="32"/><path id="Chevron_Right" data-name="Chevron Right" class="cls-2" d="M15.8,15l-9,9a1,1,0,0,0,1.4,1.4l8.3-8.3,8.3,8.3A1,1,0,0,0,26.2,24l-9-9A1,1,0,0,0,15.8,15Z"/><path id="Chevron_Right-2" data-name="Chevron Right" class="cls-2" d="M17.2,16.58l9-9a1,1,0,0,0-1.4-1.4l-8.3,8.3L8.2,6.18a1,1,0,0,0-1.4,1.4l9,9A1,1,0,0,0,17.2,16.58Z"/></svg>